<?xml version="1.0" encoding="UTF-8" standalone="no"?>
<!-- Generator: Adobe Illustrator 14.0.0, SVG Export Plug-In . SVG Version: 6.00 Build 43363)  -->

<svg
   version="1.1"
   id="Layer_1"
   x="0px"
   y="0px"
   width="74.488px"
   height="75.079px"
   viewBox="0 0 74.488 75.079"
   enable-background="new 0 0 74.488 75.079"
   xml:space="preserve"
   sodipodi:docname="DOST_seal.svg"
   inkscape:version="1.2.2 (732a01da63, 2022-12-09)"
   xmlns:inkscape="http://www.inkscape.org/namespaces/inkscape"
   xmlns:sodipodi="http://sodipodi.sourceforge.net/DTD/sodipodi-0.dtd"
   xmlns="http://www.w3.org/2000/svg"
   xmlns:svg="http://www.w3.org/2000/svg"
   xmlns:rdf="http://www.w3.org/1999/02/22-rdf-syntax-ns#"
   xmlns:cc="http://creativecommons.org/ns#"
   xmlns:dc="http://purl.org/dc/elements/1.1/"><title
   id="title2735">Department of Science and Technology</title><defs
   id="defs43">
	
	
	
	
	
	

		
		
		
	
		
		
		
	
		
		
		
	
		
		
		
	</defs><sodipodi:namedview
   id="namedview41"
   pagecolor="#ffffff"
   bordercolor="#000000"
   borderopacity="0.25"
   inkscape:showpageshadow="2"
   inkscape:pageopacity="0.0"
   inkscape:pagecheckerboard="0"
   inkscape:deskcolor="#d1d1d1"
   showgrid="false"
   inkscape:zoom="3.9038313"
   inkscape:cx="-40.344981"
   inkscape:cy="52.768673"
   inkscape:window-width="1920"
   inkscape:window-height="1009"
   inkscape:window-x="-8"
   inkscape:window-y="-8"
   inkscape:window-maximized="1"
   inkscape:current-layer="Layer_1" />
<g
   id="g2368"><rect
     x="19.235001"
     y="19.698999"
     width="36"
     height="36"
     id="rect2" /><circle
     fill="#48c4d3"
     cx="19.235001"
     cy="19.698999"
     r="18"
     id="circle4" /><circle
     fill="#48c4d3"
     cx="19.195"
     cy="19.648001"
     r="18"
     id="circle6"
     style="fill:#00acec;fill-opacity:1" /><path
     fill="#ffffff"
     d="M 19.323,37.598 C 29.241,37.571 37.276,29.527 37.276,19.601 37.276,9.676 29.242,1.629 19.324,1.603 Z"
     id="path8" /><path
     d="M 37.192,19.601 C 37.166,9.682 29.12,1.648 19.195,1.648 9.27,1.648 1.224,9.682 1.198,19.601 Z"
     id="path10" /><circle
     fill="#48c4d3"
     cx="55.314999"
     cy="19.650999"
     r="18"
     id="circle14"
     style="fill:#00acec;fill-opacity:1" /><path
     fill="#ffffff"
     d="m 37.319,19.651 c 0.027,9.918 8.07,17.952 17.996,17.952 9.925,0 17.972,-8.034 17.998,-17.952 z"
     id="path16" /><path
     d="M 55.315,37.648 C 65.234,37.621 73.268,29.576 73.268,19.651 73.268,9.726 65.234,1.679 55.316,1.653 Z"
     id="path18" /><circle
     fill="#48c4d3"
     cx="55.314999"
     cy="55.648998"
     r="18"
     id="circle22"
     style="fill:#00acec;fill-opacity:1" /><path
     fill="#ffffff"
     d="m 55.269,37.605 c -9.918,0.027 -17.953,8.072 -17.953,17.997 0,9.925 8.035,17.972 17.953,17.999 z"
     id="path24" /><path
     d="m 37.317,55.649 c 0.028,9.919 8.073,17.952 17.999,17.952 9.923,0 17.97,-8.033 17.997,-17.952 z"
     id="path26" /><circle
     fill="#48c4d3"
     cx="19.315001"
     cy="55.724998"
     r="18"
     id="circle30"
     style="fill:#00acec;fill-opacity:1" /><path
     fill="#ffffff"
     d="M 37.313,55.628 C 37.286,45.709 29.241,37.675 19.316,37.675 9.39,37.675 1.344,45.709 1.317,55.627 Z"
     id="path32" /><path
     d="M 19.268,37.682 C 9.349,37.709 1.315,45.754 1.315,55.679 c 0,9.925 8.034,17.971 17.953,17.998 z"
     id="path34" /></g>
<metadata
   id="metadata2733"><rdf:RDF><cc:Work
       rdf:about=""><dc:title>Department of Science and Technology</dc:title></cc:Work></rdf:RDF></metadata></svg>
